<svg xmlns="http://www.w3.org/2000/svg" width="32" height="32" viewBox="0 0 32 32">
  <rect width="32" height="32" fill="none"/>
  <path d="M29.884 6.146l-13.142 23.5a.714.714 0 01-1.244.005L2.096 6.148a.714.714 0 01.746-1.057l13.156 2.352a.714.714 0 00.253 0l12.881-2.348a.714.714 0 01.752 1.05z" fill="currentColor"/>
  <path d="M22.264 2.007L12.54 3.912a.357.357 0 00-.288.33l-.598 10.104a.357.357 0 00.437.369l2.707-.625a.357.357 0 01.43.294l.101 2.502a.357.357 0 00.454.302l1.67-.508a.357.357 0 01.454.302l.248 5.42a.357.357 0 00.7.041l.1-5.517a.357.357 0 01.454-.3l6.405 1.95a.357.357 0 00.454-.3l1.495-15.225a.357.357 0 00-.454-.3L22.264 2.01z" fill="white"/>
</svg>
